<svg xmlns="http://www.w3.org/2000/svg" width="27.873" height="27.626" viewBox="0 0 27.873 27.626"><defs><style>.a{fill:#fff;}</style></defs><g transform="translate(-18.5 -0.01)"><path class="a" d="M40.569.015a.454.454,0,0,0-.515.378l-.33,2.141-6.578-.727a1.806,1.806,0,0,0-1.477.519L19.03,14.965a1.807,1.807,0,0,0,0,2.556l9.586,9.586a1.807,1.807,0,0,0,2.556,0l12.64-12.64a1.8,1.8,0,0,0,.517-1.479L43.612,6.5l2.342-.168a.451.451,0,0,0,.418-.482.445.445,0,0,0-.482-.418L43.513,5.6l-.139-1.244a1.8,1.8,0,0,0-1.6-1.6l-1.154-.129.323-2.1A.451.451,0,0,0,40.569.015ZM32.843,2.7a.868.868,0,0,1,.2,0l8.631.955a.9.9,0,0,1,.8.8l.134,1.209-1.361.1a1.759,1.759,0,0,0-.346-.5,1.807,1.807,0,1,0,0,2.556,1.788,1.788,0,0,0,.519-1.16l1.287-.092.72,6.524a.887.887,0,0,1-.259.736l-12.64,12.64a.923.923,0,0,1-1.278,0l-9.584-9.584a.9.9,0,0,1,0-1.278l12.64-12.64A.9.9,0,0,1,32.843,2.7Zm6.783,2.842a.988.988,0,0,1,.7.291,1,1,0,1,1-.7-.291ZM32.9,7.186a.452.452,0,0,0-.321.771l5.62,5.62a.452.452,0,0,0,.639-.641L33.221,7.319A.455.455,0,0,0,32.9,7.186ZM31.623,8.464a.452.452,0,0,0-.321.771l4.155,4.153a.452.452,0,0,0,.639-.639L31.943,8.6A.455.455,0,0,0,31.623,8.464ZM30.345,9.742a.452.452,0,0,0-.321.771l4.155,4.153a.451.451,0,1,0,.639-.637L30.665,9.874A.455.455,0,0,0,30.345,9.742Zm-1.28,1.278a.452.452,0,0,0-.32.771l5.62,5.62a.452.452,0,1,0,.639-.639l-5.62-5.62A.452.452,0,0,0,29.066,11.02ZM27.788,12.3a.452.452,0,0,0-.32.771l4.155,4.153a.451.451,0,1,0,.637-.637L28.107,12.43A.452.452,0,0,0,27.788,12.3Zm-1.278,1.28a.451.451,0,0,0-.32.771L30.345,18.5a.451.451,0,1,0,.637-.639l-4.153-4.155A.45.45,0,0,0,26.51,13.578Zm-1.278,1.278a.451.451,0,0,0-.32.771l5.618,5.618a.452.452,0,0,0,.641-.639l-5.62-5.62A.45.45,0,0,0,25.232,14.855Zm-1.278,1.278a.451.451,0,0,0-.32.771l5.618,5.618a.452.452,0,0,0,.639-.639l-5.618-5.62A.45.45,0,0,0,23.954,16.133Z"/></g></svg>